<?xml version="1.0" encoding="UTF-8" standalone="no"?>
<!-- Generator: Adobe Illustrator 15.0.0, SVG Export Plug-In . SVG Version: 6.00 Build 0)  -->

<svg
   xmlns:osb="http://www.openswatchbook.org/uri/2009/osb"
   xmlns:dc="http://purl.org/dc/elements/1.1/"
   xmlns:cc="http://creativecommons.org/ns#"
   xmlns:rdf="http://www.w3.org/1999/02/22-rdf-syntax-ns#"
   xmlns:svg="http://www.w3.org/2000/svg"
   xmlns="http://www.w3.org/2000/svg"
   xmlns:xlink="http://www.w3.org/1999/xlink"
   xmlns:sodipodi="http://sodipodi.sourceforge.net/DTD/sodipodi-0.dtd"
   xmlns:inkscape="http://www.inkscape.org/namespaces/inkscape"
   version="1.1"
   id="Capa_1"
   x="0px"
   y="0px"
   width="566.93px"
   height="566.93px"
   viewBox="0 0 566.93 566.93"
   enable-background="new 0 0 566.93 566.93"
   xml:space="preserve"
   inkscape:version="0.48.3.1 r9886"
   sodipodi:docname="distributor-logo.svg"
   inkscape:export-filename="/home/alberto/Descargas/logo-vitalinux.png"
   inkscape:export-xdpi="5.0799923"
   inkscape:export-ydpi="5.0799923"><metadata
   id="metadata17"><rdf:RDF><cc:Work
       rdf:about=""><dc:format>image/svg+xml</dc:format><dc:type
         rdf:resource="http://purl.org/dc/dcmitype/StillImage" /><dc:title /></cc:Work></rdf:RDF></metadata><defs
   id="defs15"><linearGradient
   id="linearGradient3844"><stop
     style="stop-color:#96b900;stop-opacity:1;"
     offset="0"
     id="stop3856" /><stop
     id="stop3858"
     offset="1"
     style="stop-color:#4b5c00;stop-opacity:1;" /></linearGradient><linearGradient
   id="linearGradient3812"
   osb:paint="solid"><stop
     style="stop-color:#ffffff;stop-opacity:0.54371583;"
     offset="0"
     id="stop3814" /></linearGradient><linearGradient
   id="linearGradient3806"
   osb:paint="solid"><stop
     style="stop-color:#ffffff;stop-opacity:1;"
     offset="0"
     id="stop3808" /></linearGradient><linearGradient
   id="linearGradient3946"
   osb:paint="solid"><stop
     style="stop-color:#36770d;stop-opacity:1;"
     offset="0"
     id="stop3948" /></linearGradient><linearGradient
   id="linearGradient3911"
   osb:paint="solid"><stop
     style="stop-color:#96b900;stop-opacity:1;"
     offset="0"
     id="stop3913" /></linearGradient><linearGradient
   id="linearGradient3863"
   osb:paint="solid"><stop
     style="stop-color:#ffffff;stop-opacity:0.4246231;"
     offset="0"
     id="stop3865" /></linearGradient><inkscape:path-effect
   effect="spiro"
   id="path-effect3861"
   is_visible="true" /><inkscape:path-effect
   effect="spiro"
   id="path-effect3855"
   is_visible="true" /><inkscape:path-effect
   effect="spiro"
   id="path-effect3851"
   is_visible="true" /><linearGradient
   id="linearGradient3843"
   osb:paint="gradient"><stop
     style="stop-color:#96b900;stop-opacity:1;"
     offset="0"
     id="stop3845" /><stop
     id="stop3864"
     offset="0.64825994"
     style="stop-color:#96b900;stop-opacity:1;" /><stop
     id="stop3862"
     offset="1"
     style="stop-color:#96b900;stop-opacity:1;" /></linearGradient><inkscape:path-effect
   effect="spiro"
   id="path-effect3841"
   is_visible="true" /><inkscape:path-effect
   effect="bend_path"
   id="path-effect3006"
   is_visible="true"
   bendpath="m 51.633,311.564 468.105,0"
   prop_scale="1"
   scale_y_rel="false"
   vertical="false" /><inkscape:path-effect
   effect="bend_path"
   id="path-effect3004"
   is_visible="true"
   bendpath="m 51.633,311.564 468.105,0"
   prop_scale="1"
   scale_y_rel="false"
   vertical="false" /><inkscape:path-effect
   effect="bend_path"
   id="path-effect3002"
   is_visible="true"
   bendpath="m 51.633,311.564 468.105,0"
   prop_scale="1"
   scale_y_rel="false"
   vertical="false" /><inkscape:path-effect
   effect="bend_path"
   id="path-effect3000"
   is_visible="true"
   bendpath="m 51.633,311.564 468.105,0"
   prop_scale="1"
   scale_y_rel="false"
   vertical="false" /><inkscape:path-effect
   effect="bend_path"
   id="path-effect2998"
   is_visible="true"
   bendpath="m 51.633,311.564 468.105,0"
   prop_scale="1"
   scale_y_rel="false"
   vertical="false" />
	
	
	
		
	
		
<linearGradient
   inkscape:collect="always"
   xlink:href="#linearGradient3863"
   id="linearGradient3867"
   x1="27.094211"
   y1="80.753412"
   x2="50.251943"
   y2="80.753412"
   gradientUnits="userSpaceOnUse"
   gradientTransform="matrix(0.46468443,0,0,0.30996394,139.26657,52.816103)" /><inkscape:path-effect
   effect="spiro"
   id="path-effect3855-1"
   is_visible="true" /><inkscape:path-effect
   effect="spiro"
   id="path-effect3855-1-6"
   is_visible="true" /><linearGradient
   inkscape:collect="always"
   xlink:href="#linearGradient3946"
   id="linearGradient3956"
   gradientUnits="userSpaceOnUse"
   x1="545.58625"
   y1="241.19497"
   x2="678.8375"
   y2="241.19497" /><linearGradient
   inkscape:collect="always"
   xlink:href="#linearGradient3946"
   id="linearGradient3958"
   gradientUnits="userSpaceOnUse"
   x1="545.58625"
   y1="241.19497"
   x2="678.8375"
   y2="241.19497" /><linearGradient
   inkscape:collect="always"
   xlink:href="#linearGradient3946"
   id="linearGradient3960"
   gradientUnits="userSpaceOnUse"
   x1="545.58625"
   y1="241.19497"
   x2="678.8375"
   y2="241.19497" /><linearGradient
   inkscape:collect="always"
   xlink:href="#linearGradient3863-8"
   id="linearGradient3867-1"
   x1="27.094212"
   y1="80.75341"
   x2="50.251942"
   y2="80.75341"
   gradientUnits="userSpaceOnUse"
   gradientTransform="matrix(0.46468443,0,0,0.30996394,140.46769,57.020033)" /><linearGradient
   id="linearGradient3863-8"
   osb:paint="solid"><stop
     style="stop-color:#ffffff;stop-opacity:0.81132078;"
     offset="0"
     id="stop3865-6" /></linearGradient><inkscape:path-effect
   effect="spiro"
   id="path-effect3861-8"
   is_visible="true" /><linearGradient
   y2="80.75341"
   x2="50.251942"
   y1="80.75341"
   x1="27.094212"
   gradientTransform="matrix(0.32732283,0,0,0.20484681,146.98852,57.190553)"
   gradientUnits="userSpaceOnUse"
   id="linearGradient3996"
   xlink:href="#linearGradient3863-8"
   inkscape:collect="always" /><inkscape:path-effect
   effect="spiro"
   id="path-effect3855-9"
   is_visible="true" /><linearGradient
   inkscape:collect="always"
   xlink:href="#linearGradient3806"
   id="linearGradient3810"
   x1="119.98938"
   y1="121.0359"
   x2="187.88989"
   y2="128.0428"
   gradientUnits="userSpaceOnUse"
   gradientTransform="translate(18.705354,-31.250534)" /><linearGradient
   inkscape:collect="always"
   xlink:href="#linearGradient3812"
   id="linearGradient3816"
   x1="178.16687"
   y1="100.12295"
   x2="203.94423"
   y2="98.424309"
   gradientUnits="userSpaceOnUse"
   gradientTransform="translate(4.2918802,-4.5255509)" /><linearGradient
   inkscape:collect="always"
   xlink:href="#linearGradient3812-1"
   id="linearGradient3816-9"
   x1="178.16687"
   y1="100.12295"
   x2="203.94423"
   y2="98.424309"
   gradientUnits="userSpaceOnUse"
   gradientTransform="translate(5.5658634,-3.4638983)" /><linearGradient
   id="linearGradient3812-1"
   osb:paint="solid"><stop
     style="stop-color:#000000;stop-opacity:0.09803922;"
     offset="0"
     id="stop3814-5" /></linearGradient><linearGradient
   inkscape:collect="always"
   xlink:href="#linearGradient3806-7"
   id="linearGradient3810-7"
   x1="119.98938"
   y1="121.0359"
   x2="187.88989"
   y2="128.0428"
   gradientUnits="userSpaceOnUse"
   gradientTransform="translate(19.979337,-30.188881)" /><linearGradient
   id="linearGradient3806-7"
   osb:paint="solid"><stop
     style="stop-color:#000000;stop-opacity:0.09803922;"
     offset="0"
     id="stop3808-7" /></linearGradient><inkscape:path-effect
   effect="spiro"
   id="path-effect3855-9-4"
   is_visible="true" /><linearGradient
   y2="98.424309"
   x2="203.94423"
   y1="100.12295"
   x1="178.16687"
   gradientTransform="matrix(-0.99159542,0,0,-1.3666057,311.58289,245.26687)"
   gradientUnits="userSpaceOnUse"
   id="linearGradient3837"
   xlink:href="#linearGradient3812-1"
   inkscape:collect="always" /><linearGradient
   y2="128.0428"
   x2="187.88989"
   y1="121.0359"
   x1="119.98938"
   gradientTransform="matrix(-0.99159542,0,0,-1.3666057,297.29055,281.78938)"
   gradientUnits="userSpaceOnUse"
   id="linearGradient3839"
   xlink:href="#linearGradient3806-7"
   inkscape:collect="always" /><linearGradient
   inkscape:collect="always"
   xlink:href="#linearGradient3844"
   id="linearGradient3850"
   x1="245.02907"
   y1="136.92802"
   x2="415.5885"
   y2="490.05814"
   gradientUnits="userSpaceOnUse" /><linearGradient
   inkscape:collect="always"
   xlink:href="#linearGradient3844-0"
   id="linearGradient3850-1"
   x1="141.41177"
   y1="40.105305"
   x2="415.5885"
   y2="490.05814"
   gradientUnits="userSpaceOnUse" /><linearGradient
   id="linearGradient3844-0"><stop
     style="stop-color:#96b900;stop-opacity:1;"
     offset="0"
     id="stop3856-6" /><stop
     id="stop3858-9"
     offset="1"
     style="stop-color:#4b5c00;stop-opacity:1;" /></linearGradient><linearGradient
   gradientTransform="translate(-55.406861,-131.7791)"
   y2="490.05814"
   x2="415.5885"
   y1="136.92802"
   x1="245.02907"
   gradientUnits="userSpaceOnUse"
   id="linearGradient3881"
   xlink:href="#linearGradient3844-0"
   inkscape:collect="always" /><linearGradient
   inkscape:collect="always"
   xlink:href="#linearGradient3844-6"
   id="linearGradient3850-8"
   x1="245.02907"
   y1="136.92802"
   x2="415.5885"
   y2="490.05814"
   gradientUnits="userSpaceOnUse" /><linearGradient
   id="linearGradient3844-6"><stop
     style="stop-color:#96b900;stop-opacity:1;"
     offset="0"
     id="stop3856-3" /><stop
     id="stop3858-3"
     offset="1"
     style="stop-color:#4b5c00;stop-opacity:1;" /></linearGradient><linearGradient
   gradientTransform="translate(100.38425,78.261439)"
   y2="490.05814"
   x2="415.5885"
   y1="136.92802"
   x1="245.02907"
   gradientUnits="userSpaceOnUse"
   id="linearGradient3100"
   xlink:href="#linearGradient3844-6"
   inkscape:collect="always" /><linearGradient
   inkscape:collect="always"
   xlink:href="#linearGradient3844-7"
   id="linearGradient3850-84"
   x1="245.02907"
   y1="136.92802"
   x2="415.5885"
   y2="490.05814"
   gradientUnits="userSpaceOnUse" /><linearGradient
   id="linearGradient3844-7"><stop
     style="stop-color:#96b900;stop-opacity:1;"
     offset="0"
     id="stop3856-37" /><stop
     id="stop3858-35"
     offset="1"
     style="stop-color:#4b5c00;stop-opacity:1;" /></linearGradient><linearGradient
   inkscape:collect="always"
   xlink:href="#linearGradient3844-0-2"
   id="linearGradient3850-1-1"
   x1="141.41177"
   y1="40.105305"
   x2="415.5885"
   y2="490.05814"
   gradientUnits="userSpaceOnUse" /><linearGradient
   id="linearGradient3844-0-2"><stop
     style="stop-color:#96b900;stop-opacity:1;"
     offset="0"
     id="stop3856-6-6" /><stop
     id="stop3858-9-5"
     offset="1"
     style="stop-color:#4b5c00;stop-opacity:1;" /></linearGradient><inkscape:path-effect
   effect="spiro"
   id="path-effect3841-6"
   is_visible="true" /><linearGradient
   inkscape:collect="always"
   xlink:href="#linearGradient3863-0"
   id="linearGradient3867-6"
   x1="27.094212"
   y1="80.75341"
   x2="50.251942"
   y2="80.75341"
   gradientUnits="userSpaceOnUse"
   gradientTransform="matrix(0.46468443,0,0,0.30996394,139.26657,52.816103)" /><linearGradient
   id="linearGradient3863-0"
   osb:paint="solid"><stop
     style="stop-color:#ffffff;stop-opacity:0.4246231;"
     offset="0"
     id="stop3865-0" /></linearGradient><inkscape:path-effect
   effect="spiro"
   id="path-effect3861-4"
   is_visible="true" /><linearGradient
   y2="80.75341"
   x2="50.251942"
   y1="80.75341"
   x1="27.094212"
   gradientTransform="matrix(0.32732283,0,0,0.20484681,146.98852,57.190553)"
   gradientUnits="userSpaceOnUse"
   id="linearGradient3996-7"
   xlink:href="#linearGradient3863-8-6"
   inkscape:collect="always" /><linearGradient
   id="linearGradient3863-8-6"
   osb:paint="solid"><stop
     style="stop-color:#ffffff;stop-opacity:0.81132078;"
     offset="0"
     id="stop3865-6-9" /></linearGradient><inkscape:path-effect
   effect="spiro"
   id="path-effect3861-8-4"
   is_visible="true" /><linearGradient
   inkscape:collect="always"
   xlink:href="#linearGradient3812-8"
   id="linearGradient3816-8"
   x1="178.16687"
   y1="100.12295"
   x2="203.94423"
   y2="98.424309"
   gradientUnits="userSpaceOnUse"
   gradientTransform="translate(4.2918802,-4.5255509)" /><linearGradient
   id="linearGradient3812-8"
   osb:paint="solid"><stop
     style="stop-color:#ffffff;stop-opacity:0.54371583;"
     offset="0"
     id="stop3814-8" /></linearGradient><linearGradient
   inkscape:collect="always"
   xlink:href="#linearGradient3806-1"
   id="linearGradient3810-2"
   x1="119.98938"
   y1="121.0359"
   x2="187.88989"
   y2="128.0428"
   gradientUnits="userSpaceOnUse"
   gradientTransform="translate(18.705354,-31.250534)" /><linearGradient
   id="linearGradient3806-1"
   osb:paint="solid"><stop
     style="stop-color:#ffffff;stop-opacity:1;"
     offset="0"
     id="stop3808-5" /></linearGradient><inkscape:path-effect
   effect="spiro"
   id="path-effect3855-9-2"
   is_visible="true" /><linearGradient
   y2="98.424309"
   x2="203.94423"
   y1="100.12295"
   x1="178.16687"
   gradientTransform="matrix(-0.99159542,0,0,-1.3666057,311.58289,245.26687)"
   gradientUnits="userSpaceOnUse"
   id="linearGradient3837-9"
   xlink:href="#linearGradient3812-1-6"
   inkscape:collect="always" /><linearGradient
   id="linearGradient3812-1-6"
   osb:paint="solid"><stop
     style="stop-color:#000000;stop-opacity:0.09803922;"
     offset="0"
     id="stop3814-5-7" /></linearGradient><linearGradient
   y2="128.0428"
   x2="187.88989"
   y1="121.0359"
   x1="119.98938"
   gradientTransform="matrix(-0.99159542,0,0,-1.3666057,297.29055,281.78938)"
   gradientUnits="userSpaceOnUse"
   id="linearGradient3839-2"
   xlink:href="#linearGradient3806-7-6"
   inkscape:collect="always" /><linearGradient
   id="linearGradient3806-7-6"
   osb:paint="solid"><stop
     style="stop-color:#000000;stop-opacity:0.09803922;"
     offset="0"
     id="stop3808-7-2" /></linearGradient><inkscape:path-effect
   effect="spiro"
   id="path-effect3855-9-4-9"
   is_visible="true" /><linearGradient
   inkscape:collect="always"
   xlink:href="#linearGradient3969"
   id="linearGradient3975"
   x1="433.3259"
   y1="328.91367"
   x2="623.12054"
   y2="366.82834"
   gradientUnits="userSpaceOnUse"
   gradientTransform="matrix(1.0394218,0,0,1.0394218,-20.564757,-19.439887)" /><linearGradient
   inkscape:collect="always"
   id="linearGradient3969"><stop
     style="stop-color:#f00000;stop-opacity:1;"
     offset="0"
     id="stop3971" /><stop
     style="stop-color:#f00000;stop-opacity:0;"
     offset="1"
     id="stop3973" /></linearGradient><linearGradient
   y2="366.82834"
   x2="623.12054"
   y1="328.91367"
   x1="433.3259"
   gradientTransform="matrix(1.0394218,0,0,1.0394218,-20.564757,-19.439887)"
   gradientUnits="userSpaceOnUse"
   id="linearGradient3164"
   xlink:href="#linearGradient3969"
   inkscape:collect="always" /></defs><sodipodi:namedview
   pagecolor="#ffffff"
   bordercolor="#666666"
   borderopacity="1"
   objecttolerance="10"
   gridtolerance="10"
   guidetolerance="10"
   inkscape:pageopacity="0"
   inkscape:pageshadow="2"
   inkscape:window-width="1280"
   inkscape:window-height="749"
   id="namedview13"
   showgrid="false"
   inkscape:zoom="1"
   inkscape:cx="193.91293"
   inkscape:cy="291.60925"
   inkscape:window-x="0"
   inkscape:window-y="0"
   inkscape:window-maximized="1"
   inkscape:current-layer="Capa_1" />
<g
   transform="translate(0.08768987,-0.25965417)"
   id="g3102"><path
     sodipodi:nodetypes="csscccccccccccc"
     inkscape:connector-curvature="0"
     id="polygon5-1"
     d="m 134.27485,248.47437 c -37.174091,-9.74459 -56.3658,-0.82842 -68.656816,21.40299 -17.045251,30.83064 0.06346,65.6712 11.305843,75.94369 20.671647,18.88829 62.353253,12.15089 59.328033,-15.43179 -1.51083,-14.98441 -11.29001,-23.35431 -11.29001,-23.35431 0.66599,27.97076 -37.211768,39.28745 -39.902042,-10.29565 1.972091,-34.04604 65.306062,-27.49987 77.985602,-1.62521 50.80198,71.04581 88.71932,128.72797 139.64765,199.71605 74.35417,-111.375 145.10497,-211.93989 219.45914,-323.31489 -31.91667,0.0521 -74.64344,0.10416 -106.56011,0.15624 -38.58545,70.84357 -109.38652,170.27343 -111.93828,191.87096 -9.33162,-24.39497 -80.99046,-120.43107 -120.35015,-191.66983 -25.40315,-2.00339 -47.71796,-1.8651 -77.53978,-0.13808 -7.866821,-7.33465 -46.368507,-47.99449 -50.357069,-38.53696 21.852109,36.44361 56.991069,78.84809 78.867989,115.27679 z"
     style="fill:url(#linearGradient3850-84);fill-opacity:1;fill-rule:evenodd;stroke:none" /><path
     sodipodi:nodetypes="cszccszc"
     inkscape:connector-curvature="0"
     inkscape:original-d="m 99.452207,157.74826 c 0,0 26.778123,-101.149649 3.723423,-44.4129 -17.198042,42.32376 63.43953,-44.608072 67.78606,-50.072472 4.34654,-5.4644 150.15248,8.15142 21.62021,1.20112 -112.740537,-33.45017 37.88231,16.498343 19.21797,2.402243 0,0 -11.34589,17.854143 -28.12922,38.792459 -16.78333,20.9383 -87.049012,59.37423 -18.71457,27.26931 68.33444,-32.10492 -65.503873,24.82024 -65.503873,24.82024 z"
     inkscape:path-effect="#path-effect3841-6"
     id="path3839-1"
     d="m 99.452207,157.74826 c -3.06732,-14.74904 -1.756836,-30.38046 3.723423,-44.4129 5.38633,-13.791926 14.77239,-25.986777 26.693,-34.769079 11.92062,-8.782301 26.33326,-14.129521 41.09306,-15.303393 7.21699,-0.573979 14.51121,-0.168745 21.62021,1.20112 l 19.21797,2.402243 c -10.23311,12.279768 -19.63788,25.249702 -28.12922,38.792459 -5.86467,9.35349 -11.34495,19.04916 -18.71457,27.26931 -16.19565,18.06479 -41.40373,27.61644 -65.503873,24.82024"
     style="color:#000000;fill:url(#linearGradient3850-1-1);fill-opacity:1;fill-rule:evenodd;stroke:none;stroke-width:4;marker:none;visibility:visible;display:inline;overflow:visible;enable-background:accumulate" /><path
     sodipodi:nodetypes="zzzz"
     inkscape:connector-curvature="0"
     inkscape:original-d="m 152.66201,76.271306 c -1.4534,1.225491 -1.90173,3.065295 0.55814,3.723047 2.45987,0.657752 17.76707,-6.190756 16.49196,-8.092365 -1.2751,-1.901609 -15.5967,3.143826 -17.0501,4.369318 z"
     inkscape:path-effect="#path-effect3861-4"
     id="path3859-5"
     d="m 152.66201,76.271306 c -0.0714,1.261726 0.11993,2.537713 0.55814,3.723047 0.89266,2.414589 2.84292,4.416533 5.23335,5.372016 2.39042,0.955484 5.18328,0.849431 7.49436,-0.284582 2.31108,-1.134013 4.10391,-3.278093 4.81089,-5.753424 0.70697,-2.475332 0.31693,-5.242855 -1.04664,-7.426375 -1.02984,-1.649118 -2.59453,-2.958265 -4.39949,-3.680972 -1.80495,-0.722707 -3.84077,-0.855209 -5.72418,-0.37256 -1.88341,0.482648 -3.60459,1.577933 -4.83951,3.079648 -1.23491,1.501715 -1.97713,3.402038 -2.08692,5.343202"
     style="fill:url(#linearGradient3867-6);fill-opacity:1;stroke:#ffffff;stroke-width:0.37951997px;stroke-linecap:butt;stroke-linejoin:miter;stroke-opacity:0.09803922" /><path
     sodipodi:nodetypes="zzzz"
     inkscape:connector-curvature="0"
     inkscape:original-d="m 156.42425,72.691465 c -1.02378,0.809894 -1.33958,2.025771 0.39315,2.460461 1.73273,0.434691 9.55385,-2.900619 8.65566,-4.157341 -0.89817,-1.256722 -8.02504,0.886985 -9.04881,1.69688 z"
     inkscape:path-effect="#path-effect3861-8-4"
     id="path3859-3-7"
     d="m 156.42425,72.691465 c -0.0872,0.835631 0.0499,1.693604 0.39315,2.460461 0.52249,1.167351 1.53105,2.107915 2.73198,2.547777 1.20092,0.439862 2.57839,0.373228 3.73126,-0.180495 1.15286,-0.553723 2.06593,-1.587245 2.4733,-2.799576 0.40737,-1.212332 0.30368,-2.58751 -0.28088,-3.725047 -0.46886,-0.91238 -1.23831,-1.667109 -2.15958,-2.118246 -0.92127,-0.451138 -1.98928,-0.596198 -2.9975,-0.407131 -1.00822,0.189068 -1.95111,0.711221 -2.64634,1.465492 -0.69522,0.754271 -1.13895,1.736504 -1.24539,2.756765"
     style="fill:url(#linearGradient3996-7);fill-opacity:1;stroke:#ffffff;stroke-width:0.25894213px;stroke-linecap:butt;stroke-linejoin:miter;stroke-opacity:0.77897572" /><path
     sodipodi:nodetypes="csac"
     inkscape:connector-curvature="0"
     inkscape:original-d="m 149.57489,103.78045 c 0,0 20.28803,-17.483983 29.32705,-22.675657 6.02828,-3.462413 12.15116,-6.39611 18.49411,-8.996983 4.48718,-1.83993 13.78532,-4.652518 13.78532,-4.652518"
     inkscape:path-effect="#path-effect3855-9-2"
     id="path3853-9-2"
     d="m 149.57489,103.78045 c 8.72291,-8.803044 18.61191,-16.449213 29.32705,-22.675657 5.9328,-3.447485 12.11802,-6.461471 18.49411,-8.996983 4.50862,-1.792896 9.11233,-3.34664 13.78532,-4.652518"
     style="fill:url(#linearGradient3816-8);fill-opacity:1;stroke:url(#linearGradient3810-2);stroke-width:1;stroke-linecap:round;stroke-linejoin:miter;stroke-opacity:0.09803922" /><path
     sodipodi:nodetypes="cssc"
     inkscape:connector-curvature="0"
     inkscape:original-d="m 158.38,99.088401 c 0,0 -30.29865,23.546899 -22.27526,14.292419 4.99403,-5.7603 -21.36042,10.23123 -15.36606,15.90494 14.07659,13.3236 -14.09591,19.64288 -14.09591,19.64288"
     inkscape:path-effect="#path-effect3855-9-4-9"
     id="path3853-9-7-9"
     d="m 158.38,99.088401 c -8.02741,3.724459 -15.54425,8.547469 -22.27526,14.292419 -5.6143,4.79183 -10.67075,10.20968 -15.36606,15.90494 -5.13036,6.22296 -9.84307,12.7902 -14.09591,19.64288"
     style="fill:url(#linearGradient3837-9);fill-opacity:1;stroke:url(#linearGradient3839-2);stroke-width:1.16409624;stroke-linecap:round;stroke-linejoin:miter;stroke-opacity:0.09803922" /><path
     inkscape:connector-curvature="0"
     id="text3042"
     d="m 448.53931,275.49606 c -7.51473,2.1e-4 -15.34375,1.06357 -23.48444,3.15074 -7.93218,2.0876 -15.8448,5.01303 -23.77678,8.77012 -7.72342,3.7575 -15.15308,8.22925 -22.25012,13.44752 -6.88844,5.21866 -13.02258,10.95344 -18.44974,17.21543 -3.75734,4.80116 -6.79885,9.93691 -9.09494,15.36395 -2.08743,5.42736 -4.38134,10.73031 -6.88617,15.94863 -3.75733,7.51473 -6.56668,14.71224 -8.4453,21.60049 -1.87867,6.88849 -2.82595,13.68663 -2.82593,20.36617 -2e-5,6.47099 0.83118,13.03698 2.50111,19.71653 1.66988,6.47098 4.07988,13.26912 7.21099,20.36617 2.50483,1.04376 4.16722,2.90583 5.00222,5.61938 1.04365,2.71366 1.87484,5.32332 2.50111,7.82814 l 1.26679,0 c 1.25239,0.835 2.28327,2.29772 3.11827,4.38506 1.04364,1.87869 1.87484,3.25781 2.50111,4.09273 3.75725,5.63598 8.14539,10.85532 13.15518,15.65629 5.21841,4.59227 10.86959,8.3489 16.92309,11.27123 0.20866,10e-6 0.92377,0.19969 2.17628,0.61715 1.46109,0.4175 3.12349,0.93293 5.00222,1.55914 2.08731,0.62623 4.06545,1.25774 5.9442,1.88395 1.87855,0.62622 3.45735,1.05807 4.70988,1.26679 1.87854,0.62622 4.05638,1.22526 6.56135,1.85147 2.50475,0.41749 5.03083,0.84933 7.5358,1.2668 2.50476,0.41748 4.79867,0.93292 6.88617,1.55913 2.0409,0.55664 3.7183,1.38472 5.09967,2.43615 0.17862,-0.0769 0.3163,-0.12569 0.51971,-0.22738 0.83483,-0.41747 1.38275,-0.64964 1.59161,-0.64964 l 0.9095,0 c 3.33969,0 6.58088,0.23217 9.71209,0.64964 3.33969,0.41748 6.89664,0.61716 10.65408,0.61716 1.25228,0 3.34652,-0.43184 6.26901,-1.2668 3.13093,-0.83495 6.37211,-1.74975 9.7121,-2.79344 3.54839,-1.25243 6.87319,-2.39938 10.00443,-3.44309 3.33965,-1.25242 5.94932,-2.31578 7.82815,-3.15074 -0.20892,-0.41747 -0.84044,-0.73323 -1.88395,-0.94198 -0.83514,-0.41746 -1.78241,-0.41746 -2.82593,0 0.20856,-0.20873 1.4716,-0.92385 3.7679,-2.17629 2.29595,-1.46116 4.78955,-2.92387 7.50333,-4.38506 2.92216,-1.46116 5.53182,-2.72419 7.82815,-3.7679 2.29592,-1.25241 3.47536,-1.88394 3.47556,-1.88396 0.41728,-1.66988 1.44816,-3.33228 3.11827,-5.00221 1.6697,-1.87862 2.93275,-3.14166 3.7679,-3.76791 l -1.26679,0 -13.15519,7.53581 -1.88395,0 10.9789,-8.47778 0.29233,-0.61716 0,-0.61716 c -0.20893,-0.41744 -0.72437,-0.7332 -1.55913,-0.94197 -0.62642,-0.20871 -1.02577,-0.52446 -1.23431,-0.94198 -0.20894,-0.2087 -0.64078,-0.32478 -1.2668,-0.32482 -0.41767,-0.2087 -0.84951,-0.40838 -1.26679,-0.61716 -0.62641,-0.2087 -1.14185,-0.32477 -1.55914,-0.32481 -0.6264,4e-5 -1.97304,0.43188 -4.06024,1.26679 -2.08757,0.62625 -3.43421,1.25777 -4.06024,1.88395 0.20855,-0.41744 0.52432,-0.93288 0.94198,-1.55913 0.62603,-0.62618 0.9093,-1.1741 0.90949,-1.59161 -0.20892,4e-5 -0.29252,-0.0836 -0.29234,-0.29234 0.20855,-0.20871 0.20855,-0.32478 0,-0.32482 -1.8e-4,4e-5 -1.8e-4,-0.0836 0,-0.29234 -0.20892,-0.20869 -0.4086,-0.52446 -0.61715,-0.94197 l 0.90949,-0.64964 c 0.41729,-0.41744 0.64945,-0.61712 0.64964,-0.61716 0.41729,-0.2087 1.56425,-0.84022 3.44308,-1.88395 1.87846,-1.25239 3.10902,-2.08359 3.73543,-2.50111 l 0,-0.32482 0.32482,-1.23431 c -0.41768,5e-5 -0.73343,-0.19964 -0.94198,-0.61716 -2e-4,-0.41743 -0.19987,-0.64959 -0.61716,-0.64964 l 4.70988,-4.06024 c -2e-4,-0.62617 -0.54812,-1.25768 -1.59161,-1.88395 -0.83516,-0.83491 -1.46667,-1.23426 -1.88395,-1.23432 -0.62641,6e-5 -1.65729,0.39941 -3.11827,1.23432 -1.46136,0.83501 -2.49224,1.46653 -3.11827,1.88395 0.20855,-0.41742 0.0925,-1.04894 -0.32481,-1.88395 -0.20893,-0.83491 -0.40861,-1.23426 -0.61716,-1.23432 -1.46136,-0.62615 -3.67168,-0.42648 -6.59383,0.61716 -2.71379,1.04375 -5.72282,2.30679 -9.06246,3.7679 -3.33999,1.25249 -6.58118,2.48304 -9.7121,3.73543 -3.13124,1.25248 -5.9406,1.88399 -8.4453,1.88395 l -5.9442,0 c -0.41763,-0.41743 -1.48097,-0.93287 -3.15074,-1.55913 -1.46132,-0.83491 -3.2398,-1.66611 -5.32704,-2.50111 -1.87879,-1.04364 -3.85694,-1.99092 -5.94419,-2.82593 -1.87878,-0.83491 -3.02574,-1.55002 -3.44309,-2.17629 -5.00986,-3.96598 -9.91344,-8.27052 -14.71431,-12.86285 -4.8011,-4.80092 -8.75741,-10.21994 -11.88839,-16.27344 -0.41758,-0.83488 -0.93302,-1.86575 -1.55913,-3.11827 -0.41758,-1.46108 -0.9655,-2.8402 -1.59162,-4.09272 -0.62631,-1.46109 -1.22535,-3.00739 -1.85147,-4.6774 l 0.61716,-3.15075 c 1.87855,-0.20864 3.65703,-0.40831 5.32703,-0.61715 1.6698,-0.20865 3.13252,-0.29224 4.38507,-0.29234 1.46106,-0.20864 2.69161,-0.32472 3.73542,-0.32482 5.42709,-0.20864 11.16187,-0.32472 17.21542,-0.32482 6.05329,10e-5 12.13631,-0.31566 18.18988,-0.94198 6.26201,-0.62611 12.31256,-1.65699 18.1574,-3.11826 6.05325,-1.46107 11.67196,-3.75499 16.89061,-6.88617 -1.9e-4,-0.20862 0.51525,-0.72406 1.55913,-1.55913 1.04351,-1.04358 2.19047,-2.10694 3.44309,-3.15075 1.25224,-1.04358 2.3992,-1.95838 3.44308,-2.79345 1.04351,-0.83483 1.67502,-1.46635 1.88395,-1.88395 0.41729,-0.20862 1.56424,-0.84013 3.44309,-1.88395 1.87845,-1.25231 3.0254,-2.08351 3.44308,-2.50111 l 0.64964,-0.64964 c 0.20854,-0.20861 0.5243,-0.29221 0.94198,-0.29234 0.41727,-0.62608 0.93271,-1.88913 1.55913,-3.7679 0.83475,-2.08725 1.35019,-3.3503 1.55913,-3.7679 1.25223,-2.92221 2.71494,-5.73156 4.38506,-8.44531 1.6697,-2.71346 2.81666,-5.52281 3.44309,-8.4453 1.04347,-4.80084 1.04347,-9.18899 0,-13.15518 -1.0439,-4.17461 -1.87511,-8.36308 -2.50111,-12.53803 -0.20895,1.8e-4 -1.2723,-0.39918 -3.15075,-1.23431 -1.87886,-0.83478 -2.90972,-1.46629 -3.11826,-1.88395 -0.41768,1.7e-4 -0.61737,-0.1995 -0.61716,-0.61716 0.20854,-0.4173 0.52429,-0.61698 0.94198,-0.61716 l -7.53581,-9.09494 c 0.83476,-0.62602 0.75116,-1.25754 -0.29234,-1.88395 -0.83515,-0.83476 -1.8985,-1.46628 -3.15075,-1.88395 -1.25263,-0.41729 -2.59926,-0.73304 -4.06024,-0.94198 -1.25262,-0.41728 -1.88414,-0.61696 -1.88395,-0.61715 -1.9e-4,0.20893 -0.19987,0.64077 -0.61716,1.26679 -0.20892,0.62641 -0.52468,0.94217 -0.94197,0.94198 l -0.61716,0.29233 -0.94198,-0.29233 c -0.20892,1.9e-4 -0.325,-0.63133 -0.32482,-1.88396 -1.8e-4,-1.25223 -0.11625,-2.08343 -0.32481,-2.5011 -0.41767,-0.83476 -1.44854,-1.78204 -3.11827,-2.82593 -1.46135,-1.25224 -3.23983,-2.3992 -5.32704,-3.44309 -1.87881,-1.04348 -3.7409,-1.87469 -5.61937,-2.50111 -1.87882,-0.83474 -3.34153,-1.35018 -4.38506,-1.55913 -0.41764,2.1e-4 -1.5646,-0.23196 -3.44309,-0.64964 -1.8788,-0.41726 -3.02576,-0.61695 -3.44308,-0.61715 -1.25259,-0.41727 -2.00019,-0.84911 -2.20877,-1.2668 -0.2089,-0.626 -0.40858,-1.22504 -0.61716,-1.85147 -1.6e-4,-0.626 -0.19984,-1.17392 -0.61716,-1.59161 -0.20889,-0.41727 -1.04008,-0.81663 -2.50111,-1.23432 -0.41762,2.2e-4 -1.16523,-0.11586 -2.20877,-0.32482 -1.04384,-0.41726 -2.30688,-0.81662 -3.7679,-1.23431 -1.25258,-0.41727 -2.48314,-0.73302 -3.73542,-0.94198 -1.04384,-0.41725 -1.79144,-0.64942 -2.20877,-0.64963 z m -17.11798,217.23916 c -0.55471,0.23887 -1.04855,0.38978 -1.36424,0.38978 l 1.88395,0 c -0.16237,-0.13916 -0.34704,-0.25836 -0.51971,-0.38978 z m 56.03133,-196.54817 c 0.0718,-0.0163 0.14907,2e-5 0.22737,0 0.4173,1.9e-4 0.53338,0.51563 0.32482,1.55913 -0.20891,1.04389 -0.52468,1.55933 -0.94197,1.55913 -0.6264,2e-4 -0.82607,-0.51524 -0.61716,-1.55913 0.18249,-0.91306 0.50455,-1.44485 1.00694,-1.55913 z m 2.98834,0 c 0.11743,-0.0163 0.25929,2e-5 0.38978,0 0.4173,1.9e-4 0.5009,0.51563 0.29234,1.55913 -0.20893,1.04389 -0.52468,1.55933 -0.94198,1.55913 -1.04387,2e-4 -1.44323,-0.51524 -1.23431,-1.55913 0.18249,-0.91306 0.67214,-1.44485 1.49417,-1.55913 z m 4.54747,4.38506 c 0.0718,-0.0163 0.11659,2e-5 0.19489,0 0.83477,1.9e-4 1.15053,0.51562 0.94198,1.55913 -0.20893,1.04388 -0.72437,1.55932 -1.55914,1.55913 -0.62639,1.9e-4 -0.82608,-0.51525 -0.61715,-1.55913 0.18248,-0.91306 0.53701,-1.44485 1.03942,-1.55913 z m 5.52193,3.11826 c 0.41728,1.9e-4 0.53337,0.19987 0.32482,0.61716 -2e-4,0.41767 -0.19987,0.73343 -0.61716,0.94198 -0.20893,1.8e-4 -0.32501,-0.19949 -0.32482,-0.61716 0.20855,-0.62602 0.40822,-0.94179 0.61716,-0.94198 z m -54.73206,17.47528 c 0.77616,-0.0456 1.05954,0.3862 0.87701,1.29928 -4.59238,0.62639 -8.86446,2.32127 -12.83036,5.0347 -3.96616,2.71376 -7.92246,5.52312 -11.88839,8.4453 l 9.06246,-7.21099 0.64964,-3.11826 c -1.2e-4,-0.41731 1.14684,-1.16491 3.44309,-2.20877 2.296,-1.04353 4.35775,-1.75864 6.23653,-2.17629 l 2.20877,0 c 0.41734,1.7e-4 1.04886,1.7e-4 1.88395,0 0.13045,-0.0261 0.24643,-0.0585 0.3573,-0.065 z m 6.52887,5.68434 c 2.50472,1.7e-4 4.05103,1.06353 4.6774,3.15075 0.8348,2.08755 1.06696,4.26538 0.64964,6.56135 -0.41763,1.67007 -1.24883,3.96398 -2.50111,6.88617 -1.04384,2.92249 -2.50656,4.90064 -4.38506,5.94419 -4.38366,0.41762 -7.9406,0.73339 -10.65408,0.94198 -2.50499,0.20888 -5.43042,0.32496 -8.77012,0.32482 -2.29625,1.4e-4 -4.70624,-0.31562 -7.21099,-0.94198 -2.50497,-0.62607 -5.11465,-0.94183 -7.82814,-0.94198 0.41737,-2.08724 2.19584,-4.38115 5.32703,-6.88617 3.13097,-2.71345 6.68792,-5.12344 10.65408,-7.21098 3.96591,-2.29597 7.83862,-4.15805 11.59605,-5.61938 3.96589,-1.461 6.77525,-2.2086 8.4453,-2.20877 z m 56.68097,37.25678 c 0.83475,1.2e-4 1.15052,0.54804 0.94198,1.59161 -0.20895,1.04382 -0.75687,1.55926 -1.59162,1.55913 -0.83515,1.3e-4 -1.15091,-0.51531 -0.94197,-1.55913 0.20854,-1.04357 0.75646,-1.59149 1.59161,-1.59161 z m -13.48,10.97889 c 0.83477,1.1e-4 1.26661,0.1998 1.26679,0.61716 -1.04388,0.83507 -1.79148,0.83507 -2.20877,0 -1.8e-4,-0.41736 0.31557,-0.61705 0.94198,-0.61716 z m -5.00222,81.39972 c 0.83477,4e-5 1.15054,0.51547 0.94198,1.55913 -0.20893,1.04373 -0.72436,1.55917 -1.55913,1.55914 -0.83514,3e-5 -1.1509,-0.51541 -0.94198,-1.55914 0.20856,-1.04366 0.724,-1.55909 1.55913,-1.55913 z"
     style="font-size:308.46264648px;font-style:italic;font-variant:normal;font-weight:normal;font-stretch:normal;line-height:125%;letter-spacing:0px;word-spacing:0px;fill:url(#linearGradient3164);fill-opacity:1;fill-rule:nonzero;stroke:none;font-family:From Where You Are;-inkscape-font-specification:From Where You Are Italic" /></g>
<path
   style="fill:url(#linearGradient3850-1);fill-opacity:1;stroke:none;stroke-width:4.00000004999999970;stroke-linecap:butt;stroke-linejoin:miter;stroke-opacity:1;color:#000000;fill-rule:evenodd;marker:none;visibility:visible;display:inline;overflow:visible;enable-background:accumulate"
   d="m 99.452207,157.74826 c -3.06732,-14.74904 -1.756836,-30.38046 3.723423,-44.4129 5.38633,-13.791926 14.77239,-25.986777 26.693,-34.769079 11.92062,-8.782301 26.33326,-14.129521 41.09306,-15.303393 7.21699,-0.573979 14.51121,-0.168745 21.62021,1.20112 l 19.21797,2.402243 c -10.23311,12.279768 -19.63788,25.249702 -28.12922,38.792459 -5.86467,9.35349 -11.34495,19.04916 -18.71457,27.26931 -16.19565,18.06479 -41.40373,27.61644 -65.503873,24.82024"
   id="path3839"
   inkscape:path-effect="#path-effect3841"
   inkscape:original-d="m 99.452207,157.74826 c 0,0 26.778123,-101.149649 3.723423,-44.4129 -17.198042,42.32376 63.43953,-44.608072 67.78606,-50.072472 4.34654,-5.4644 150.15248,8.15142 21.62021,1.20112 -112.740537,-33.45017 37.88231,16.498343 19.21797,2.402243 0,0 -11.34589,17.854143 -28.12922,38.792459 -16.78333,20.9383 -87.049012,59.37423 -18.71457,27.26931 68.33444,-32.10492 -65.503873,24.82024 -65.503873,24.82024 z"
   inkscape:connector-curvature="0"
   sodipodi:nodetypes="cszccszc" /><path
   style="fill:url(#linearGradient3867);fill-opacity:1;stroke:#ffffff;stroke-width:0.37951997px;stroke-linecap:butt;stroke-linejoin:miter;stroke-opacity:0.09803922"
   d="m 152.66201,76.271306 c -0.0714,1.261726 0.11993,2.537713 0.55814,3.723047 0.89266,2.414589 2.84292,4.416533 5.23335,5.372016 2.39042,0.955484 5.18328,0.849431 7.49436,-0.284582 2.31108,-1.134013 4.10391,-3.278093 4.81089,-5.753424 0.70697,-2.475332 0.31693,-5.242855 -1.04664,-7.426375 -1.02984,-1.649118 -2.59453,-2.958265 -4.39949,-3.680972 -1.80495,-0.722707 -3.84077,-0.855209 -5.72418,-0.37256 -1.88341,0.482648 -3.60459,1.577933 -4.83951,3.079648 -1.23491,1.501715 -1.97713,3.402038 -2.08692,5.343202"
   id="path3859"
   inkscape:path-effect="#path-effect3861"
   inkscape:original-d="m 152.66201,76.271306 c -1.4534,1.225491 -1.90173,3.065295 0.55814,3.723047 2.45987,0.657752 17.76707,-6.190756 16.49196,-8.092365 -1.2751,-1.901609 -15.5967,3.143826 -17.0501,4.369318 z"
   inkscape:connector-curvature="0"
   sodipodi:nodetypes="zzzz" /><path
   style="fill:url(#linearGradient3996);fill-opacity:1;stroke:#ffffff;stroke-width:0.25894213px;stroke-linecap:butt;stroke-linejoin:miter;stroke-opacity:0.77897572"
   d="m 156.42425,72.691465 c -0.0872,0.835631 0.0499,1.693604 0.39315,2.460461 0.52249,1.167351 1.53105,2.107915 2.73198,2.547777 1.20092,0.439862 2.57839,0.373228 3.73126,-0.180495 1.15286,-0.553723 2.06593,-1.587245 2.4733,-2.799576 0.40737,-1.212332 0.30368,-2.58751 -0.28088,-3.725047 -0.46886,-0.91238 -1.23831,-1.667109 -2.15958,-2.118246 -0.92127,-0.451138 -1.98928,-0.596198 -2.9975,-0.407131 -1.00822,0.189068 -1.95111,0.711221 -2.64634,1.465492 -0.69522,0.754271 -1.13895,1.736504 -1.24539,2.756765"
   id="path3859-3"
   inkscape:path-effect="#path-effect3861-8"
   inkscape:original-d="m 156.42425,72.691465 c -1.02378,0.809894 -1.33958,2.025771 0.39315,2.460461 1.73273,0.434691 9.55385,-2.900619 8.65566,-4.157341 -0.89817,-1.256722 -8.02504,0.886985 -9.04881,1.69688 z"
   inkscape:connector-curvature="0"
   sodipodi:nodetypes="zzzz" /><path
   style="fill:url(#linearGradient3816);fill-opacity:1;stroke:url(#linearGradient3810);stroke-width:1;stroke-linecap:round;stroke-linejoin:miter;stroke-opacity:0.09803922"
   d="m 149.57489,103.78045 c 8.72291,-8.803044 18.61191,-16.449213 29.32705,-22.675657 5.9328,-3.447485 12.11802,-6.461471 18.49411,-8.996983 4.50862,-1.792896 9.11233,-3.34664 13.78532,-4.652518"
   id="path3853-9"
   inkscape:path-effect="#path-effect3855-9"
   inkscape:original-d="m 149.57489,103.78045 c 0,0 20.28803,-17.483983 29.32705,-22.675657 6.02828,-3.462413 12.15116,-6.39611 18.49411,-8.996983 4.48718,-1.83993 13.78532,-4.652518 13.78532,-4.652518"
   inkscape:connector-curvature="0"
   sodipodi:nodetypes="csac" /><path
   style="fill:url(#linearGradient3837);fill-opacity:1;stroke:url(#linearGradient3839);stroke-width:1.16409624;stroke-linecap:round;stroke-linejoin:miter;stroke-opacity:0.09803922"
   d="m 158.38,99.088401 c -8.02741,3.724459 -15.54425,8.547469 -22.27526,14.292419 -5.6143,4.79183 -10.67075,10.20968 -15.36606,15.90494 -5.13036,6.22296 -9.84307,12.7902 -14.09591,19.64288"
   id="path3853-9-7"
   inkscape:path-effect="#path-effect3855-9-4"
   inkscape:original-d="m 158.38,99.088401 c 0,0 -30.29865,23.546899 -22.27526,14.292419 4.99403,-5.7603 -21.36042,10.23123 -15.36606,15.90494 14.07659,13.3236 -14.09591,19.64288 -14.09591,19.64288"
   inkscape:connector-curvature="0"
   sodipodi:nodetypes="cssc" /></svg>